<mxfile host="app.diagrams.net" modified="2021-02-24T01:18:05.510Z" agent="5.0 (Macintosh; Intel Mac OS X 11_2_1) AppleWebKit/537.36 (KHTML, like Gecko) Chrome/88.0.4324.182 Safari/537.36" etag="gWg348FfY89ULPxj0XU7" version="14.3.2" type="github">
  <diagram id="mENFt5hzagjeAIdPpgN2" name="Page-1">
    <mxGraphModel dx="946" dy="517" grid="1" gridSize="10" guides="1" tooltips="1" connect="1" arrows="1" fold="1" page="1" pageScale="1" pageWidth="1100" pageHeight="1700" math="0" shadow="0">
      <root>
        <mxCell id="0" />
        <mxCell id="1" parent="0" />
        <mxCell id="MZLqF50LSz_hDRNjhT2n-1" value="" style="strokeWidth=1;shadow=0;dashed=0;align=center;html=1;shape=mxgraph.mockup.containers.browserWindow;rSize=0;strokeColor=#666666;strokeColor2=#008cff;strokeColor3=#c4c4c4;mainText=,;recursiveResize=0;" vertex="1" parent="1">
          <mxGeometry x="40" y="80" width="780" height="1610" as="geometry" />
        </mxCell>
        <mxCell id="MZLqF50LSz_hDRNjhT2n-2" value="Royal Touristz" style="strokeWidth=1;shadow=0;dashed=0;align=center;html=1;shape=mxgraph.mockup.containers.anchor;fontSize=17;fontColor=#666666;align=left;" vertex="1" parent="MZLqF50LSz_hDRNjhT2n-1">
          <mxGeometry x="60" y="12" width="110" height="26" as="geometry" />
        </mxCell>
        <mxCell id="MZLqF50LSz_hDRNjhT2n-3" value="https://www.royaltouristz.com" style="strokeWidth=1;shadow=0;dashed=0;align=center;html=1;shape=mxgraph.mockup.containers.anchor;rSize=0;fontSize=17;fontColor=#666666;align=left;" vertex="1" parent="MZLqF50LSz_hDRNjhT2n-1">
          <mxGeometry x="130" y="60" width="250" height="26" as="geometry" />
        </mxCell>
        <mxCell id="MZLqF50LSz_hDRNjhT2n-4" value="Logo" style="html=1;shadow=0;dashed=0;fillColor=#f5f5f5;strokeColor=#666666;fontSize=16;align=left;spacing=15;gradientColor=#b3b3b3;" vertex="1" parent="MZLqF50LSz_hDRNjhT2n-1">
          <mxGeometry y="110" width="780" height="50" as="geometry" />
        </mxCell>
        <mxCell id="MZLqF50LSz_hDRNjhT2n-5" value="Home" style="fillColor=none;strokeColor=none;fontSize=14;align=center;fontColor=#FF3399;" vertex="1" parent="MZLqF50LSz_hDRNjhT2n-4">
          <mxGeometry width="70" height="40" relative="1" as="geometry">
            <mxPoint x="390" y="5" as="offset" />
          </mxGeometry>
        </mxCell>
        <mxCell id="MZLqF50LSz_hDRNjhT2n-6" value="Features" style="fillColor=none;strokeColor=none;fontSize=14;fontColor=#9A9DA0;align=center;" vertex="1" parent="MZLqF50LSz_hDRNjhT2n-4">
          <mxGeometry width="70" height="40" relative="1" as="geometry">
            <mxPoint x="450" y="5" as="offset" />
          </mxGeometry>
        </mxCell>
        <mxCell id="MZLqF50LSz_hDRNjhT2n-7" value="Gallery" style="fillColor=none;strokeColor=none;fontSize=14;fontColor=#9A9DA0;align=center;spacingRight=0;" vertex="1" parent="MZLqF50LSz_hDRNjhT2n-4">
          <mxGeometry width="80" height="40" relative="1" as="geometry">
            <mxPoint x="510" y="5" as="offset" />
          </mxGeometry>
        </mxCell>
        <mxCell id="MZLqF50LSz_hDRNjhT2n-8" value="About" style="fillColor=none;strokeColor=none;fontSize=14;fontColor=#9A9DA0;align=center;" vertex="1" parent="MZLqF50LSz_hDRNjhT2n-4">
          <mxGeometry width="80" height="40" relative="1" as="geometry">
            <mxPoint x="570" y="5" as="offset" />
          </mxGeometry>
        </mxCell>
        <mxCell id="MZLqF50LSz_hDRNjhT2n-11" value="Contact" style="fillColor=none;strokeColor=none;fontSize=14;fontColor=#9A9DA0;align=center;" vertex="1" parent="MZLqF50LSz_hDRNjhT2n-4">
          <mxGeometry x="700" y="5" width="80" height="40" as="geometry" />
        </mxCell>
        <mxCell id="MZLqF50LSz_hDRNjhT2n-50" value="Review" style="fillColor=none;strokeColor=none;fontSize=14;fontColor=#9A9DA0;align=center;" vertex="1" parent="MZLqF50LSz_hDRNjhT2n-4">
          <mxGeometry x="630" y="5" width="80" height="40" as="geometry" />
        </mxCell>
        <mxCell id="MZLqF50LSz_hDRNjhT2n-12" value="&lt;h1&gt;Heading&lt;/h1&gt;&lt;p&gt;Lorem ipsum dolor sit amet, consectetur adipisicing elit, sed do eiusmod tempor incididunt ut labore et dolore magna aliqua.&lt;/p&gt;" style="text;html=1;strokeColor=none;fillColor=none;spacing=5;spacingTop=-20;whiteSpace=wrap;overflow=hidden;rounded=0;fontColor=#FF3399;" vertex="1" parent="MZLqF50LSz_hDRNjhT2n-1">
          <mxGeometry x="120" y="310" width="380" height="120" as="geometry" />
        </mxCell>
        <mxCell id="MZLqF50LSz_hDRNjhT2n-13" value="" style="verticalLabelPosition=bottom;shadow=0;dashed=0;align=center;html=1;verticalAlign=top;strokeWidth=1;shape=mxgraph.mockup.forms.colorPicker;chosenColor=#aaddff;fontColor=#FF3399;" vertex="1" parent="MZLqF50LSz_hDRNjhT2n-1">
          <mxGeometry x="120" y="210" width="590" height="90" as="geometry" />
        </mxCell>
        <mxCell id="MZLqF50LSz_hDRNjhT2n-16" value="HOME" style="text;html=1;strokeColor=none;fillColor=none;align=center;verticalAlign=middle;whiteSpace=wrap;rounded=0;fontColor=#FF3399;fontStyle=5" vertex="1" parent="MZLqF50LSz_hDRNjhT2n-1">
          <mxGeometry x="370" y="180" width="40" height="20" as="geometry" />
        </mxCell>
        <mxCell id="MZLqF50LSz_hDRNjhT2n-17" value="Feature" style="text;html=1;strokeColor=none;fillColor=none;align=center;verticalAlign=middle;whiteSpace=wrap;rounded=0;fontColor=#FF3399;fontStyle=5" vertex="1" parent="MZLqF50LSz_hDRNjhT2n-1">
          <mxGeometry x="370" y="420" width="60" height="20" as="geometry" />
        </mxCell>
        <mxCell id="MZLqF50LSz_hDRNjhT2n-18" value="" style="whiteSpace=wrap;html=1;aspect=fixed;fontColor=#FF3399;" vertex="1" parent="MZLqF50LSz_hDRNjhT2n-1">
          <mxGeometry x="130" y="480" width="120" height="120" as="geometry" />
        </mxCell>
        <mxCell id="MZLqF50LSz_hDRNjhT2n-20" value="" style="whiteSpace=wrap;html=1;aspect=fixed;fontColor=#FF3399;" vertex="1" parent="MZLqF50LSz_hDRNjhT2n-1">
          <mxGeometry x="590" y="480" width="120" height="120" as="geometry" />
        </mxCell>
        <mxCell id="MZLqF50LSz_hDRNjhT2n-19" value="" style="whiteSpace=wrap;html=1;aspect=fixed;fontColor=#FF3399;" vertex="1" parent="MZLqF50LSz_hDRNjhT2n-1">
          <mxGeometry x="355" y="480" width="120" height="120" as="geometry" />
        </mxCell>
        <mxCell id="MZLqF50LSz_hDRNjhT2n-21" value="Gallery" style="text;html=1;strokeColor=none;fillColor=none;align=center;verticalAlign=middle;whiteSpace=wrap;rounded=0;fontColor=#FF3399;fontStyle=5" vertex="1" parent="MZLqF50LSz_hDRNjhT2n-1">
          <mxGeometry x="380" y="630" width="60" height="20" as="geometry" />
        </mxCell>
        <mxCell id="MZLqF50LSz_hDRNjhT2n-23" value="" style="rounded=1;whiteSpace=wrap;html=1;fontColor=#FF3399;" vertex="1" parent="MZLqF50LSz_hDRNjhT2n-1">
          <mxGeometry x="170" y="670" width="480" height="140" as="geometry" />
        </mxCell>
        <mxCell id="MZLqF50LSz_hDRNjhT2n-24" value="" style="triangle;whiteSpace=wrap;html=1;fontColor=#FF3399;" vertex="1" parent="MZLqF50LSz_hDRNjhT2n-1">
          <mxGeometry x="615" y="715" width="30" height="50" as="geometry" />
        </mxCell>
        <mxCell id="MZLqF50LSz_hDRNjhT2n-25" value="" style="triangle;whiteSpace=wrap;html=1;fontColor=#FF3399;rotation=-180;" vertex="1" parent="MZLqF50LSz_hDRNjhT2n-1">
          <mxGeometry x="175" y="715" width="40" height="50" as="geometry" />
        </mxCell>
        <mxCell id="MZLqF50LSz_hDRNjhT2n-26" value="About" style="text;html=1;strokeColor=none;fillColor=none;align=center;verticalAlign=middle;whiteSpace=wrap;rounded=0;fontColor=#FF3399;fontStyle=5" vertex="1" parent="MZLqF50LSz_hDRNjhT2n-1">
          <mxGeometry x="385" y="830" width="60" height="20" as="geometry" />
        </mxCell>
        <mxCell id="MZLqF50LSz_hDRNjhT2n-27" value="" style="verticalLabelPosition=bottom;shadow=0;dashed=0;align=center;html=1;verticalAlign=top;strokeWidth=1;shape=mxgraph.mockup.graphics.simpleIcon;strokeColor=#999999;fontColor=#FF3399;" vertex="1" parent="MZLqF50LSz_hDRNjhT2n-1">
          <mxGeometry x="90" y="890" width="320" height="250" as="geometry" />
        </mxCell>
        <mxCell id="MZLqF50LSz_hDRNjhT2n-28" value="&lt;h1&gt;About Us&lt;/h1&gt;&lt;p&gt;Lorem ipsum dolor sit amet, consectetur adipisicing elit, sed do eiusmod tempor incididunt ut labore et dolore magna aliqua.&lt;/p&gt;" style="text;html=1;strokeColor=none;fillColor=none;spacing=5;spacingTop=-20;whiteSpace=wrap;overflow=hidden;rounded=0;fontColor=#FF3399;" vertex="1" parent="MZLqF50LSz_hDRNjhT2n-1">
          <mxGeometry x="430" y="930" width="295" height="160" as="geometry" />
        </mxCell>
        <mxCell id="MZLqF50LSz_hDRNjhT2n-29" value="Get Started" style="rounded=1;html=1;shadow=0;dashed=0;whiteSpace=wrap;fontSize=10;fillColor=#E6E6E6;align=center;strokeColor=#B3B3B3;fontColor=#333333;" vertex="1" parent="MZLqF50LSz_hDRNjhT2n-1">
          <mxGeometry x="440" y="1050" width="105.5" height="16.88" as="geometry" />
        </mxCell>
        <mxCell id="MZLqF50LSz_hDRNjhT2n-30" value="Review" style="text;html=1;strokeColor=none;fillColor=none;align=center;verticalAlign=middle;whiteSpace=wrap;rounded=0;fontColor=#FF3399;fontStyle=5" vertex="1" parent="MZLqF50LSz_hDRNjhT2n-1">
          <mxGeometry x="380" y="1180" width="40" height="20" as="geometry" />
        </mxCell>
        <mxCell id="MZLqF50LSz_hDRNjhT2n-31" value="" style="whiteSpace=wrap;html=1;aspect=fixed;fontColor=#FF3399;" vertex="1" parent="MZLqF50LSz_hDRNjhT2n-1">
          <mxGeometry x="110" y="1230" width="120" height="120" as="geometry" />
        </mxCell>
        <mxCell id="MZLqF50LSz_hDRNjhT2n-32" value="" style="whiteSpace=wrap;html=1;aspect=fixed;fontColor=#FF3399;" vertex="1" parent="MZLqF50LSz_hDRNjhT2n-1">
          <mxGeometry x="570" y="1230" width="120" height="120" as="geometry" />
        </mxCell>
        <mxCell id="MZLqF50LSz_hDRNjhT2n-33" value="" style="whiteSpace=wrap;html=1;aspect=fixed;fontColor=#FF3399;" vertex="1" parent="MZLqF50LSz_hDRNjhT2n-1">
          <mxGeometry x="335" y="1230" width="120" height="120" as="geometry" />
        </mxCell>
        <mxCell id="MZLqF50LSz_hDRNjhT2n-34" value="Contact" style="text;html=1;strokeColor=none;fillColor=none;align=center;verticalAlign=middle;whiteSpace=wrap;rounded=0;fontColor=#FF3399;fontStyle=5" vertex="1" parent="MZLqF50LSz_hDRNjhT2n-1">
          <mxGeometry x="375" y="1360" width="40" height="20" as="geometry" />
        </mxCell>
        <mxCell id="MZLqF50LSz_hDRNjhT2n-35" value="" style="rounded=1;whiteSpace=wrap;html=1;fontColor=#FF3399;" vertex="1" parent="MZLqF50LSz_hDRNjhT2n-1">
          <mxGeometry y="1580" width="780" height="30" as="geometry" />
        </mxCell>
        <mxCell id="MZLqF50LSz_hDRNjhT2n-36" value="" style="verticalLabelPosition=bottom;shadow=0;dashed=0;align=center;html=1;verticalAlign=top;strokeWidth=1;shape=mxgraph.mockup.misc.map;fontColor=#FF3399;" vertex="1" parent="MZLqF50LSz_hDRNjhT2n-1">
          <mxGeometry x="55" y="1497" width="670" height="80" as="geometry" />
        </mxCell>
        <mxCell id="MZLqF50LSz_hDRNjhT2n-37" value="Google Map" style="text;html=1;strokeColor=none;fillColor=none;align=center;verticalAlign=middle;whiteSpace=wrap;rounded=0;fontColor=#FF3399;" vertex="1" parent="MZLqF50LSz_hDRNjhT2n-1">
          <mxGeometry x="350" y="1477" width="100" height="20" as="geometry" />
        </mxCell>
        <mxCell id="MZLqF50LSz_hDRNjhT2n-38" value="" style="verticalLabelPosition=bottom;shadow=0;dashed=0;align=center;html=1;verticalAlign=top;strokeWidth=1;shape=mxgraph.mockup.graphics.simpleIcon;strokeColor=#999999;fontColor=#FF3399;" vertex="1" parent="MZLqF50LSz_hDRNjhT2n-1">
          <mxGeometry x="110" y="1397" width="230" height="80" as="geometry" />
        </mxCell>
        <mxCell id="MZLqF50LSz_hDRNjhT2n-42" value="" style="verticalLabelPosition=bottom;shadow=0;dashed=0;align=center;html=1;verticalAlign=top;strokeWidth=1;shape=mxgraph.mockup.graphics.simpleIcon;strokeColor=#999999;fontColor=#FF3399;" vertex="1" parent="MZLqF50LSz_hDRNjhT2n-1">
          <mxGeometry x="430" y="1390" width="230" height="80" as="geometry" />
        </mxCell>
        <mxCell id="MZLqF50LSz_hDRNjhT2n-43" value="Email Form" style="text;html=1;strokeColor=none;fillColor=none;align=center;verticalAlign=middle;whiteSpace=wrap;rounded=0;fontColor=#FF3399;" vertex="1" parent="MZLqF50LSz_hDRNjhT2n-1">
          <mxGeometry x="510" y="1397" width="70" height="20" as="geometry" />
        </mxCell>
        <mxCell id="MZLqF50LSz_hDRNjhT2n-44" value="Office Address &amp;amp; Contact no" style="text;html=1;strokeColor=none;fillColor=none;align=center;verticalAlign=middle;whiteSpace=wrap;rounded=0;fontColor=#FF3399;" vertex="1" parent="MZLqF50LSz_hDRNjhT2n-1">
          <mxGeometry x="160" y="1400" width="130" height="20" as="geometry" />
        </mxCell>
        <mxCell id="MZLqF50LSz_hDRNjhT2n-45" value="Flight search form" style="text;html=1;strokeColor=none;fillColor=none;align=center;verticalAlign=middle;whiteSpace=wrap;rounded=0;fontColor=#FF3399;" vertex="1" parent="MZLqF50LSz_hDRNjhT2n-1">
          <mxGeometry x="335" y="220" width="150" height="20" as="geometry" />
        </mxCell>
        <mxCell id="MZLqF50LSz_hDRNjhT2n-46" value="Copyright text" style="text;html=1;strokeColor=none;fillColor=none;align=center;verticalAlign=middle;whiteSpace=wrap;rounded=0;fontColor=#FF3399;" vertex="1" parent="MZLqF50LSz_hDRNjhT2n-1">
          <mxGeometry x="30" y="1585" width="150" height="20" as="geometry" />
        </mxCell>
        <mxCell id="MZLqF50LSz_hDRNjhT2n-48" value="Social Media links" style="text;html=1;strokeColor=none;fillColor=none;align=center;verticalAlign=middle;whiteSpace=wrap;rounded=0;fontColor=#FF3399;" vertex="1" parent="MZLqF50LSz_hDRNjhT2n-1">
          <mxGeometry x="615" y="1585" width="150" height="20" as="geometry" />
        </mxCell>
        <mxCell id="MZLqF50LSz_hDRNjhT2n-49" value="Footer" style="text;html=1;strokeColor=none;fillColor=none;align=center;verticalAlign=middle;whiteSpace=wrap;rounded=0;fontColor=#FF3399;fontStyle=5" vertex="1" parent="MZLqF50LSz_hDRNjhT2n-1">
          <mxGeometry x="350" y="1577" width="40" height="20" as="geometry" />
        </mxCell>
      </root>
    </mxGraphModel>
  </diagram>
</mxfile>
